<svg width="438" height="554" viewBox="0 0 438 554" fill="none" xmlns="http://www.w3.org/2000/svg">
<path d="M162.592 215.086L112.108 240.747C109.796 241.923 107.118 242.154 104.638 241.392L35.1098 220.017C32.8225 219.314 30.3588 219.455 28.1662 220.413L6.35492 229.947C2.53293 231.617 0.149339 235.485 0.374681 239.65L3.76824 302.374C3.88344 304.504 4.67629 306.54 6.03103 308.187L60.8519 374.826C62.3242 376.616 63.1293 378.861 63.1293 381.179V442.12C63.1293 444.37 63.8881 446.555 65.2831 448.32L120.513 518.214C121.689 519.703 123.263 520.826 125.054 521.453L214.448 552.758C216.733 553.559 219.232 553.503 221.479 552.6L316.254 514.538C317.797 513.919 319.162 512.924 320.223 511.644L378.205 441.761C379.838 439.793 380.655 437.273 380.487 434.721L377.056 382.445C376.893 379.958 377.664 377.5 379.219 375.552L432.816 308.389C434.23 306.617 435 304.418 435 302.151V240.088C435 235.709 432.15 231.839 427.968 230.539L393.664 219.876C391.679 219.259 389.551 219.276 387.576 219.925L323.647 240.924C320.494 241.959 317.033 241.363 314.408 239.333L290.26 220.654C288.8 219.525 287.056 218.822 285.221 218.623L246.213 214.387C243.911 214.137 241.594 214.693 239.657 215.961L221.96 227.546C217.52 230.452 211.584 229.384 208.435 225.114L203.236 218.065C201.351 215.509 198.364 214 195.188 214H167.124C165.549 214 163.996 214.372 162.592 215.086Z" fill="#184D47"/>
<path d="M98.3682 430.351L110.219 319.537C110.516 316.765 111.956 314.243 114.192 312.578L135.368 296.82C136.613 295.893 138.056 295.269 139.584 294.997L192.484 285.568C196.066 284.93 199.713 286.288 202.005 289.114L213.081 302.77C216.773 307.322 223.57 307.737 227.789 303.668L241.273 290.664C243.357 288.654 246.209 287.646 249.093 287.9L298.208 292.228C299.819 292.37 301.371 292.901 302.732 293.774L331.948 312.526C334.563 314.205 336.25 317.004 336.511 320.101L345.57 427.495C345.806 430.288 344.858 433.051 342.959 435.112L298.507 483.343C297.338 484.611 295.86 485.556 294.218 486.084L223.03 509.007C221.025 509.652 218.867 509.648 216.864 508.995L146.646 486.091C145.011 485.558 143.541 484.612 142.378 483.344L100.942 438.174C99.0005 436.057 98.0628 433.208 98.3682 430.351Z" fill="#D2FDE4" fill-opacity="0.97"/>
<path d="M91.277 261.621L36.4261 243.818C34.8581 243.309 33.1385 243.643 31.8744 244.701C29.7692 246.463 29.5742 249.631 31.4474 251.639L69.3299 292.234C71.2212 294.26 73.8689 295.411 76.641 295.411H77.824C81.1382 295.411 84.2371 293.769 86.0983 291.027L96.2375 276.087C97.3128 274.503 97.8877 272.632 97.8877 270.717C97.8877 266.573 95.2186 262.9 91.277 261.621Z" fill="#D2FDE4" fill-opacity="0.97"/>
<path d="M356.024 289.696L347.474 276.096C346.472 274.501 345.94 272.631 345.94 270.747C345.94 266.585 348.519 262.795 352.414 261.327L396.299 244.794C399.005 243.775 402.043 244.969 403.331 247.557C404.342 249.589 404.035 252.029 402.553 253.748L370.593 290.795C368.184 293.587 364.327 294.646 360.83 293.475C358.84 292.809 357.141 291.473 356.024 289.696Z" fill="#D2FDE4" fill-opacity="0.97"/>
<path d="M176.853 322.037L161.183 316.56C160.123 316.189 159.007 316 157.884 316H146.881C144.231 316 141.69 317.052 139.815 318.924L126.807 331.913C126.208 332.511 125.687 333.184 125.257 333.913L117.384 347.279C116.478 348.817 116 350.57 116 352.355V374.545C116 377.554 117.355 380.403 119.689 382.302L139.986 398.817C141.769 400.268 143.998 401.06 146.297 401.06H174.522C177.595 401.06 180.498 399.647 182.393 397.229L195.09 381.028C196.469 379.268 197.219 377.096 197.219 374.86V347.397C197.219 345.008 196.363 342.697 194.807 340.884L181.141 324.963C179.994 323.627 178.515 322.618 176.853 322.037Z" fill="#245852"/>
<path d="M280.18 316H274.051C271.763 316 269.544 316.785 267.764 318.223L251.305 331.528C250.255 332.377 249.388 333.429 248.756 334.621L241.965 347.431C241.2 348.874 240.8 350.482 240.8 352.115V375.023C240.8 377.755 241.918 380.368 243.893 382.255L260.682 398.291C262.543 400.068 265.017 401.06 267.589 401.06H296.215C298.791 401.06 301.267 400.066 303.129 398.285L320.414 381.743C322.673 379.581 323.791 376.487 323.436 373.381L320.422 347.046C320.173 344.872 319.217 342.839 317.702 341.259L299.253 322.036C297.949 320.677 296.288 319.714 294.46 319.258L282.602 316.298C281.81 316.1 280.997 316 280.18 316Z" fill="#245852"/>
<path d="M227.399 391.169H211.705C208.796 391.169 206.032 392.436 204.132 394.639L178.846 423.962C177.28 425.777 176.419 428.095 176.419 430.492V469.859C176.419 472.658 177.592 475.329 179.654 477.223L198.312 494.364C200.157 496.059 202.571 497 205.077 497H237.208C239.53 497 241.78 496.192 243.571 494.714L259.944 481.208C262.247 479.308 263.581 476.479 263.581 473.493V430.582C263.581 428.13 262.68 425.764 261.05 423.933L234.869 394.521C232.971 392.389 230.253 391.169 227.399 391.169Z" fill="#245852"/>
<path d="M274.667 350.975L276.174 350.171C278.753 348.793 281.807 348.614 284.53 349.68L290.369 351.967C293.314 353.12 295.54 355.599 296.372 358.65L297.275 361.969C298.323 365.813 296.988 369.912 293.879 372.402L290.879 374.805C289.105 376.226 286.9 377 284.627 377H279.769C275.846 377 272.286 374.706 270.664 371.134L270.272 370.27C269.682 368.972 269.377 367.562 269.377 366.136V359.797C269.377 356.105 271.411 352.714 274.667 350.975Z" fill="#CCF8DF"/>
<path d="M167.24 355.003L161.562 350.299C159.768 348.813 157.512 348 155.182 348H153.8C150.173 348 146.83 349.964 145.065 353.133L143.264 356.364C142.435 357.852 142 359.528 142 361.231V364.075C142 368.339 144.704 372.134 148.734 373.527L154.66 375.574C157.291 376.483 160.182 376.255 162.637 374.944L165.253 373.547C168.021 372.069 169.934 369.378 170.421 366.278L170.739 364.256C171.287 360.77 169.957 357.254 167.24 355.003Z" fill="#CCF8DF"/>
<path d="M195.868 202.242H169.375L104.771 206.038C103.096 206.137 101.424 205.812 99.9071 205.095L68.0998 190.044C65.9021 189.004 64.1585 187.199 63.1952 184.967L40.9877 133.5C40.3392 131.997 40.0695 130.358 40.2025 128.726L46.6146 50.0321C46.8073 47.6666 47.8351 45.4467 49.5142 43.7694L70.9037 22.4026C72.0127 21.2947 73.3667 20.4631 74.8563 19.9748L134.202 0.522802C135.257 0.176688 136.364 0.00899359 137.475 0.0266111L381.493 3.89581C383.56 3.92859 385.566 4.60127 387.235 5.82127L422.021 31.247C424.041 32.7235 425.434 34.9037 425.925 37.3571L437.482 95.0807C437.822 96.7766 437.715 98.5317 437.174 100.174L412.574 174.807C411.778 177.221 410.093 179.242 407.861 180.458L369.837 201.176C368.549 201.878 367.122 202.288 365.657 202.377L302.7 206.188H240.947C238.725 206.188 236.566 206.928 234.811 208.292L221.621 218.54C220.403 219.486 218.905 220 217.363 220C215.135 220 213.044 218.931 211.739 217.126L203.972 206.383C202.091 203.782 199.077 202.242 195.868 202.242Z" fill="#00917C"/>
<path d="M70.3705 84.0798L91.5399 44.595L136.975 43.5675L134.768 63.924L103.48 61.9803L93.1547 87.6587L132.617 91.7284L128.98 112.235L90.3097 108.827L87.156 127.047L126.443 136.352L121.474 151.035L67.0928 142.563L70.3705 84.0798Z" fill="#F7EF45"/>
<path d="M151.09 102.467L155.546 48.3326L194.875 44.2171L212.941 57.9797L224.083 102.282L211.572 141.607L175.623 157.295L138.944 152.188L151.09 102.467Z" fill="#F7EF45"/>
<path d="M240.895 110.959L237.969 55.3607L255.614 51.278L281.315 62.0056L296.907 79.7541L304.495 117.72L290.033 145.322L263.303 159.3L237.967 158.97L240.895 110.959Z" fill="#F7EF45"/>
<path d="M312.731 99.7145L308.024 54.7382L327.1 50.5059L328.257 61.5657L338.494 90.31L336.091 122.613L341.631 154.831L310.498 154.362L312.916 142.928L312.731 99.7145Z" fill="#F7EF45"/>
<path d="M357.121 102.523L347.816 55.0466L342.116 48.9345L350.718 41.3259L386.471 37.5845L398.488 55.7072L370.734 66.8108L374.654 83.5445L400.648 76.352L408.586 103.846L381.007 109.714L377.524 131.695L406.589 133.125L403.358 150.607L355.933 153.334L357.121 102.523Z" fill="#F7EF45"/>
<path d="M173.976 106.132L176.359 80.5399L182.892 73.8931L197.096 78.3699L202.404 108.375L184.795 126.617L170.746 123.614L173.976 106.132Z" fill="#00917C"/>
<path d="M261.307 118.61L257.835 85.4309L270.706 84.084L279.806 95.0579L285.156 111.642L275.567 130.535L259.352 134.468L261.307 118.61Z" fill="#00917C"/>
</svg>
